<svg width="1024" height="1024" viewBox="0 0 1024 1024" fill="none" xmlns="http://www.w3.org/2000/svg">
<g clip-path="url(#clip0)">
<path d="M443.919 437.979C461.096 437.472 475.453 431.898 487.503 420.241C494.682 413.399 503.142 409.852 513.141 410.105C531.344 410.612 544.675 424.042 546.983 439.753C548.521 451.663 544.932 461.546 536.471 470.161C527.498 479.03 522.114 489.927 520.319 502.09C517.499 519.575 521.601 535.539 533.138 549.476C542.368 560.879 554.674 567.975 569.288 570.762C586.721 573.803 602.873 570.002 616.974 559.612C620.307 557.078 623.383 553.784 626.716 551.25C633.382 546.182 641.074 543.901 649.79 544.408C665.173 544.915 679.274 556.318 682.35 571.776C686.452 592.808 671.839 610.546 653.123 613.08C641.33 614.601 631.331 611.307 622.614 602.944C612.872 593.822 601.591 587.487 588.26 585.966C572.108 583.939 557.494 588.247 544.419 597.876C532.113 606.999 523.909 618.909 520.576 633.859C516.73 651.344 520.576 667.055 531.344 681.246C533.651 684.286 536.471 687.074 539.035 690.115C554.161 707.599 548.777 729.139 532.113 741.049C521.601 748.651 510.064 750.171 498.271 744.85C486.221 739.275 478.786 729.899 477.248 716.469C475.966 705.572 479.555 695.943 487.247 688.087C497.502 677.698 503.398 665.281 504.937 650.837C506.475 634.366 501.348 619.669 490.58 606.999C481.35 596.102 469.557 589.26 455.456 586.726C437.253 583.432 420.845 587.993 406.231 599.143C403.667 601.17 401.616 603.451 399.053 605.478C379.055 621.949 347.521 612.827 341.624 585.206C338.547 571.522 345.726 557.078 358.545 549.223C372.133 540.861 388.798 542.634 400.591 553.784C408.539 561.386 417.512 567.214 428.28 570.002C451.097 576.337 476.735 567.721 491.605 548.97C498.784 540.1 503.398 529.964 504.68 518.561C506.475 502.343 501.86 488.153 491.862 475.229C481.606 462.052 467.762 454.45 451.354 452.423C434.433 450.143 419.307 454.957 405.975 465.347C402.129 468.388 398.54 471.935 394.438 474.723C382.388 482.578 367.262 481.564 355.725 472.695C347.777 466.614 342.649 458.758 341.111 449.129C339.829 440.26 342.137 432.151 347.777 425.056C350.597 421.508 353.93 418.214 356.75 414.666C364.954 404.277 369.569 392.62 369.569 379.443C369.569 362.972 363.672 348.528 352.135 336.618C347.008 331.297 342.906 324.962 341.624 317.613C340.086 308.237 342.393 299.621 348.033 292.019C353.674 284.417 361.109 279.096 370.595 277.322C380.593 275.295 389.567 277.829 397.514 283.911C407.77 291.766 412.641 302.156 411.615 314.826C411.102 322.428 408.282 329.27 402.898 334.844C396.232 341.686 390.592 349.288 387.516 358.411C379.824 379.697 383.926 399.715 399.565 417.707C409.051 428.603 421.358 434.938 435.715 437.472C438.535 437.726 441.355 437.726 443.919 437.979Z" fill="url(#paint0_linear)"/>
<path d="M715.423 546.689C705.424 546.689 697.22 542.381 690.298 535.793C680.299 526.163 668.25 520.588 654.662 519.321C635.69 517.548 619.281 523.122 605.437 536.299C598.515 542.888 590.054 546.435 580.312 546.689C566.211 546.689 553.136 538.327 548.008 525.656C542.368 511.973 544.419 499.049 554.674 488.153C560.571 481.818 565.955 474.976 569.031 466.867C577.492 443.301 573.39 422.015 556.212 403.77C550.316 397.181 545.701 390.086 544.932 381.217C544.419 375.896 545.445 370.574 547.496 365.76C553.392 353.343 563.135 345.234 577.235 343.46C585.696 342.193 593.387 344.727 600.31 349.795C611.077 357.397 615.949 367.787 615.436 380.457C614.923 389.073 611.334 396.675 605.181 403.01C596.207 412.132 590.054 422.775 588.003 435.445C585.44 450.649 588.772 464.84 597.489 477.51C607.232 491.954 620.82 501.076 638.253 504.371C653.636 507.158 667.737 503.864 680.556 495.502C695.682 485.619 705.168 471.935 707.732 454.197C710.552 434.938 705.168 417.96 691.836 403.77C688.247 399.969 685.171 396.168 683.12 391.353C679.53 382.991 679.274 374.375 683.12 366.013C687.478 356.13 694.657 349.288 704.655 345.487C716.961 340.926 727.986 343.46 737.984 351.569C747.214 358.918 751.316 368.8 750.803 380.457C750.291 389.073 746.958 396.421 740.805 402.756C730.806 412.639 725.166 424.549 723.115 438.233C720.807 454.197 725.422 468.641 735.164 481.311C737.984 484.859 741.317 488.153 744.138 491.701C749.265 498.036 752.085 505.638 751.316 513.747C750.291 525.91 743.881 535.286 733.882 541.874C728.242 544.915 722.089 546.689 715.423 546.689Z" fill="url(#paint1_linear)"/>
<path d="M309.577 546.942C289.579 546.435 272.146 527.937 273.94 508.425C274.709 499.809 278.811 492.461 284.964 486.379C294.194 477.003 300.091 465.6 301.629 452.423C303.936 433.165 298.296 416.44 284.708 402.503C276.76 394.394 273.171 384.765 274.453 373.615C275.735 362.212 281.888 353.596 291.887 347.515C304.962 339.659 320.601 341.433 331.882 351.569C338.547 357.651 343.162 364.746 344.444 373.868C345.47 381.47 343.931 388.819 339.573 395.154C336.753 399.209 333.164 403.01 330.087 406.811C322.652 415.933 317.781 426.323 316.499 438.233C314.961 453.437 319.319 467.374 328.549 479.537C338.035 491.954 350.597 500.316 366.236 503.357C383.157 506.651 398.284 502.85 412.128 492.968C415.204 490.94 417.768 488.406 420.588 485.872C436.997 471.175 461.353 474.216 473.915 492.207C484.17 506.905 481.094 524.896 467.506 536.806C460.327 543.395 451.61 546.689 441.868 545.929C432.895 545.168 425.716 541.114 419.307 535.286C411.359 527.684 402.129 522.362 391.105 519.828C370.338 515.267 351.879 519.828 335.984 534.019C330.343 539.087 324.19 543.648 316.499 545.422C314.448 546.435 311.884 546.689 309.577 546.942Z" fill="url(#paint2_linear)"/>
<path d="M682.863 310.771C683.12 320.4 679.53 328.763 672.608 335.605C662.353 345.741 656.713 358.157 655.174 372.095C653.38 388.312 658.507 402.756 668.762 415.426C671.326 418.721 674.403 421.508 676.71 424.802C687.222 439.5 684.658 458.758 670.557 470.668C664.404 475.99 657.482 479.284 649.534 479.537C642.099 480.044 635.177 477.763 629.024 473.456C620.82 467.881 615.179 460.279 613.385 450.649C611.334 439.753 614.154 430.124 621.589 422.015C626.204 416.693 631.075 411.625 634.408 405.29C639.535 395.408 641.843 384.765 641.074 373.868C640.048 359.678 634.664 347.261 624.665 336.872C619.538 331.55 615.436 325.722 613.641 318.373C611.334 307.984 613.898 298.608 620.563 290.499C626.204 283.15 633.639 278.336 642.868 276.562C652.354 274.788 660.815 277.322 668.506 282.644C676.966 288.472 681.581 296.581 683.12 306.463C683.12 307.73 682.863 309.251 682.863 310.771Z" fill="url(#paint3_linear)"/>
<path d="M544.676 645.769C544.932 630.058 558.264 614.347 574.159 611.053C592.875 607.252 611.847 621.189 615.18 639.181C618 654.385 611.334 666.041 599.028 674.657C576.466 690.115 550.316 673.897 545.701 652.358C544.932 650.33 544.932 648.05 544.676 645.769Z" fill="url(#paint4_linear)"/>
<path d="M480.068 377.416C480.068 396.168 462.891 412.892 443.919 412.639C425.203 412.639 408.795 395.914 409.051 377.163C409.308 358.664 427.254 341.94 445.97 342.7C464.429 343.46 480.581 360.185 480.068 377.416Z" fill="url(#paint5_linear)"/>
<path d="M480.068 645.262C480.581 662.494 464.173 680.739 444.175 680.739C425.46 680.739 409.308 664.268 409.308 645.262C409.308 627.271 426.998 610.293 445.457 610.546C464.685 610.8 480.325 627.778 480.068 645.262Z" fill="url(#paint6_linear)"/>
<path d="M783.876 409.852C802.335 409.598 818.744 426.576 819 444.568C819 462.052 802.592 480.297 782.851 480.044C763.622 479.791 747.471 462.306 747.983 444.061C748.496 426.323 765.673 409.598 783.876 409.852Z" fill="url(#paint7_linear)"/>
<path d="M241.893 409.852C260.352 409.852 276.248 426.069 276.76 444.568C277.017 462.306 260.096 479.791 241.38 480.044C222.921 479.791 206 463.319 206 445.074C206 426.576 223.177 409.852 241.893 409.852Z" fill="url(#paint8_linear)"/>
</g>
<defs>
<linearGradient id="paint0_linear" x1="512.5" y1="276" x2="512.5" y2="748" gradientUnits="userSpaceOnUse">
<stop stop-color="#F15F77"/>
<stop offset="1" stop-color="#E11E34"/>
</linearGradient>
<linearGradient id="paint1_linear" x1="512.5" y1="276" x2="512.5" y2="748" gradientUnits="userSpaceOnUse">
<stop stop-color="#F15F77"/>
<stop offset="1" stop-color="#E11E34"/>
</linearGradient>
<linearGradient id="paint2_linear" x1="512.5" y1="276" x2="512.5" y2="748" gradientUnits="userSpaceOnUse">
<stop stop-color="#F15F77"/>
<stop offset="1" stop-color="#E11E34"/>
</linearGradient>
<linearGradient id="paint3_linear" x1="512.5" y1="276" x2="512.5" y2="748" gradientUnits="userSpaceOnUse">
<stop stop-color="#F15F77"/>
<stop offset="1" stop-color="#E11E34"/>
</linearGradient>
<linearGradient id="paint4_linear" x1="512.5" y1="276" x2="512.5" y2="748" gradientUnits="userSpaceOnUse">
<stop stop-color="#F15F77"/>
<stop offset="1" stop-color="#E11E34"/>
</linearGradient>
<linearGradient id="paint5_linear" x1="512.5" y1="276" x2="512.5" y2="748" gradientUnits="userSpaceOnUse">
<stop stop-color="#F15F77"/>
<stop offset="1" stop-color="#E11E34"/>
</linearGradient>
<linearGradient id="paint6_linear" x1="512.5" y1="276" x2="512.5" y2="748" gradientUnits="userSpaceOnUse">
<stop stop-color="#F15F77"/>
<stop offset="1" stop-color="#E11E34"/>
</linearGradient>
<linearGradient id="paint7_linear" x1="512.5" y1="276" x2="512.5" y2="748" gradientUnits="userSpaceOnUse">
<stop stop-color="#F15F77"/>
<stop offset="1" stop-color="#E11E34"/>
</linearGradient>
<linearGradient id="paint8_linear" x1="512.5" y1="276" x2="512.5" y2="748" gradientUnits="userSpaceOnUse">
<stop stop-color="#F15F77"/>
<stop offset="1" stop-color="#E11E34"/>
</linearGradient>
<clipPath id="clip0">
<rect width="1024" height="1024" fill="white"/>
</clipPath>
</defs>
</svg>
